<mxfile host="app.diagrams.net" agent="Mozilla/5.0 (Windows NT 10.0; Win64; x64) AppleWebKit/537.36 (KHTML, like Gecko) Chrome/137.0.0.0 Safari/537.36" version="27.1.1">
  <diagram name="第 1 页" id="n0FgRmdMllpNhTCo88hj">
    <mxGraphModel dx="1665" dy="777" grid="1" gridSize="10" guides="1" tooltips="1" connect="1" arrows="1" fold="1" page="1" pageScale="1" pageWidth="827" pageHeight="1169" math="0" shadow="0">
      <root>
        <mxCell id="0" />
        <mxCell id="1" parent="0" />
        <mxCell id="vb5EdWWyYZ6hDgargNtk-3" style="edgeStyle=orthogonalEdgeStyle;rounded=0;orthogonalLoop=1;jettySize=auto;html=1;exitX=0.5;exitY=1;exitDx=0;exitDy=0;entryX=0.5;entryY=0;entryDx=0;entryDy=0;" parent="1" source="vb5EdWWyYZ6hDgargNtk-1" target="vb5EdWWyYZ6hDgargNtk-2" edge="1">
          <mxGeometry relative="1" as="geometry" />
        </mxCell>
        <mxCell id="vb5EdWWyYZ6hDgargNtk-1" value="人脸特征聚类训练集" style="rounded=0;whiteSpace=wrap;html=1;" parent="1" vertex="1">
          <mxGeometry x="340" y="70" width="120" height="50" as="geometry" />
        </mxCell>
        <mxCell id="vb5EdWWyYZ6hDgargNtk-6" style="edgeStyle=orthogonalEdgeStyle;rounded=0;orthogonalLoop=1;jettySize=auto;html=1;exitX=0.5;exitY=1;exitDx=0;exitDy=0;entryX=0.5;entryY=0;entryDx=0;entryDy=0;" parent="1" source="vb5EdWWyYZ6hDgargNtk-2" target="vb5EdWWyYZ6hDgargNtk-5" edge="1">
          <mxGeometry relative="1" as="geometry" />
        </mxCell>
        <mxCell id="vb5EdWWyYZ6hDgargNtk-2" value="KNN计算" style="rounded=0;whiteSpace=wrap;html=1;" parent="1" vertex="1">
          <mxGeometry x="340" y="160" width="120" height="60" as="geometry" />
        </mxCell>
        <mxCell id="0VZTM6ZU5YmMHWf4AoFY-6" style="edgeStyle=orthogonalEdgeStyle;rounded=0;orthogonalLoop=1;jettySize=auto;html=1;exitX=0.5;exitY=1;exitDx=0;exitDy=0;entryX=0.5;entryY=0;entryDx=0;entryDy=0;" edge="1" parent="1" source="vb5EdWWyYZ6hDgargNtk-5" target="0VZTM6ZU5YmMHWf4AoFY-5">
          <mxGeometry relative="1" as="geometry" />
        </mxCell>
        <mxCell id="vb5EdWWyYZ6hDgargNtk-5" value="余弦距离计算" style="rounded=0;whiteSpace=wrap;html=1;" parent="1" vertex="1">
          <mxGeometry x="340" y="260" width="120" height="60" as="geometry" />
        </mxCell>
        <mxCell id="0VZTM6ZU5YmMHWf4AoFY-19" style="edgeStyle=orthogonalEdgeStyle;rounded=0;orthogonalLoop=1;jettySize=auto;html=1;exitX=0.5;exitY=1;exitDx=0;exitDy=0;entryX=0.5;entryY=0;entryDx=0;entryDy=0;" edge="1" parent="1" source="0VZTM6ZU5YmMHWf4AoFY-1">
          <mxGeometry relative="1" as="geometry">
            <mxPoint x="400" y="585" as="targetPoint" />
          </mxGeometry>
        </mxCell>
        <mxCell id="0VZTM6ZU5YmMHWf4AoFY-1" value="有监督训练" style="rounded=0;whiteSpace=wrap;html=1;" vertex="1" parent="1">
          <mxGeometry x="340" y="480" width="120" height="60" as="geometry" />
        </mxCell>
        <mxCell id="0VZTM6ZU5YmMHWf4AoFY-9" style="edgeStyle=orthogonalEdgeStyle;rounded=0;orthogonalLoop=1;jettySize=auto;html=1;exitX=0.5;exitY=1;exitDx=0;exitDy=0;entryX=0.5;entryY=0;entryDx=0;entryDy=0;" edge="1" parent="1" source="0VZTM6ZU5YmMHWf4AoFY-5" target="0VZTM6ZU5YmMHWf4AoFY-1">
          <mxGeometry relative="1" as="geometry" />
        </mxCell>
        <mxCell id="0VZTM6ZU5YmMHWf4AoFY-5" value="阈值区间的选择" style="rounded=0;whiteSpace=wrap;html=1;" vertex="1" parent="1">
          <mxGeometry x="340" y="370" width="120" height="60" as="geometry" />
        </mxCell>
        <mxCell id="0VZTM6ZU5YmMHWf4AoFY-8" style="edgeStyle=orthogonalEdgeStyle;rounded=0;orthogonalLoop=1;jettySize=auto;html=1;" edge="1" parent="1" source="0VZTM6ZU5YmMHWf4AoFY-7" target="0VZTM6ZU5YmMHWf4AoFY-5">
          <mxGeometry relative="1" as="geometry" />
        </mxCell>
        <mxCell id="0VZTM6ZU5YmMHWf4AoFY-7" value="选择相似度在0.3~0.4之间的数据进行训练" style="shape=document;whiteSpace=wrap;html=1;boundedLbl=1;" vertex="1" parent="1">
          <mxGeometry x="140" y="360" width="120" height="80" as="geometry" />
        </mxCell>
        <mxCell id="0VZTM6ZU5YmMHWf4AoFY-16" style="edgeStyle=orthogonalEdgeStyle;rounded=0;orthogonalLoop=1;jettySize=auto;html=1;entryX=0;entryY=0.5;entryDx=0;entryDy=0;" edge="1" parent="1" source="0VZTM6ZU5YmMHWf4AoFY-15" target="vb5EdWWyYZ6hDgargNtk-1">
          <mxGeometry relative="1" as="geometry" />
        </mxCell>
        <mxCell id="0VZTM6ZU5YmMHWf4AoFY-15" value="正确分组的人脸聚类数据" style="shape=document;whiteSpace=wrap;html=1;boundedLbl=1;" vertex="1" parent="1">
          <mxGeometry x="150" y="55" width="120" height="80" as="geometry" />
        </mxCell>
        <mxCell id="0VZTM6ZU5YmMHWf4AoFY-23" style="edgeStyle=orthogonalEdgeStyle;rounded=0;orthogonalLoop=1;jettySize=auto;html=1;exitX=0.5;exitY=1;exitDx=0;exitDy=0;entryX=0.5;entryY=0;entryDx=0;entryDy=0;" edge="1" parent="1" source="0VZTM6ZU5YmMHWf4AoFY-17" target="0VZTM6ZU5YmMHWf4AoFY-22">
          <mxGeometry relative="1" as="geometry" />
        </mxCell>
        <mxCell id="0VZTM6ZU5YmMHWf4AoFY-17" value="待聚类人脸特征数据" style="rounded=0;whiteSpace=wrap;html=1;" vertex="1" parent="1">
          <mxGeometry x="620" y="406" width="120" height="50" as="geometry" />
        </mxCell>
        <mxCell id="0VZTM6ZU5YmMHWf4AoFY-29" style="edgeStyle=orthogonalEdgeStyle;rounded=0;orthogonalLoop=1;jettySize=auto;html=1;exitX=0.5;exitY=1;exitDx=0;exitDy=0;exitPerimeter=0;entryX=0;entryY=0.5;entryDx=0;entryDy=0;" edge="1" parent="1" source="0VZTM6ZU5YmMHWf4AoFY-20" target="0VZTM6ZU5YmMHWf4AoFY-28">
          <mxGeometry relative="1" as="geometry" />
        </mxCell>
        <mxCell id="0VZTM6ZU5YmMHWf4AoFY-20" value="模型" style="shape=cylinder3;whiteSpace=wrap;html=1;boundedLbl=1;backgroundOutline=1;size=15;" vertex="1" parent="1">
          <mxGeometry x="370" y="585" width="60" height="80" as="geometry" />
        </mxCell>
        <mxCell id="0VZTM6ZU5YmMHWf4AoFY-33" style="edgeStyle=orthogonalEdgeStyle;rounded=0;orthogonalLoop=1;jettySize=auto;html=1;exitX=1;exitY=0.5;exitDx=0;exitDy=0;entryX=0;entryY=0.5;entryDx=0;entryDy=0;" edge="1" parent="1" source="0VZTM6ZU5YmMHWf4AoFY-22" target="0VZTM6ZU5YmMHWf4AoFY-32">
          <mxGeometry relative="1" as="geometry" />
        </mxCell>
        <mxCell id="0VZTM6ZU5YmMHWf4AoFY-22" value="KNN计算" style="rounded=0;whiteSpace=wrap;html=1;" vertex="1" parent="1">
          <mxGeometry x="620" y="486" width="120" height="60" as="geometry" />
        </mxCell>
        <mxCell id="0VZTM6ZU5YmMHWf4AoFY-25" style="edgeStyle=orthogonalEdgeStyle;rounded=0;orthogonalLoop=1;jettySize=auto;html=1;exitX=0.5;exitY=1;exitDx=0;exitDy=0;entryX=1;entryY=0.5;entryDx=0;entryDy=0;entryPerimeter=0;" edge="1" parent="1" source="0VZTM6ZU5YmMHWf4AoFY-22" target="0VZTM6ZU5YmMHWf4AoFY-20">
          <mxGeometry relative="1" as="geometry" />
        </mxCell>
        <mxCell id="0VZTM6ZU5YmMHWf4AoFY-27" style="edgeStyle=orthogonalEdgeStyle;rounded=0;orthogonalLoop=1;jettySize=auto;html=1;" edge="1" parent="1" source="0VZTM6ZU5YmMHWf4AoFY-26">
          <mxGeometry relative="1" as="geometry">
            <mxPoint x="680" y="610" as="targetPoint" />
          </mxGeometry>
        </mxCell>
        <mxCell id="0VZTM6ZU5YmMHWf4AoFY-26" value="选择相似度在0.3~0.4之间的数据进行预测" style="shape=document;whiteSpace=wrap;html=1;boundedLbl=1;" vertex="1" parent="1">
          <mxGeometry x="740" y="570" width="120" height="80" as="geometry" />
        </mxCell>
        <mxCell id="0VZTM6ZU5YmMHWf4AoFY-37" style="edgeStyle=orthogonalEdgeStyle;rounded=0;orthogonalLoop=1;jettySize=auto;html=1;entryX=0;entryY=0.5;entryDx=0;entryDy=0;" edge="1" parent="1" source="0VZTM6ZU5YmMHWf4AoFY-28" target="0VZTM6ZU5YmMHWf4AoFY-36">
          <mxGeometry relative="1" as="geometry" />
        </mxCell>
        <mxCell id="0VZTM6ZU5YmMHWf4AoFY-28" value="模型预测结果" style="rounded=0;whiteSpace=wrap;html=1;" vertex="1" parent="1">
          <mxGeometry x="630" y="700" width="120" height="50" as="geometry" />
        </mxCell>
        <mxCell id="0VZTM6ZU5YmMHWf4AoFY-34" style="edgeStyle=orthogonalEdgeStyle;rounded=0;orthogonalLoop=1;jettySize=auto;html=1;" edge="1" parent="1" source="0VZTM6ZU5YmMHWf4AoFY-32">
          <mxGeometry relative="1" as="geometry">
            <mxPoint x="1240" y="516" as="targetPoint" />
          </mxGeometry>
        </mxCell>
        <mxCell id="0VZTM6ZU5YmMHWf4AoFY-35" value="是" style="edgeLabel;html=1;align=center;verticalAlign=middle;resizable=0;points=[];" vertex="1" connectable="0" parent="0VZTM6ZU5YmMHWf4AoFY-34">
          <mxGeometry x="0.2219" y="1" relative="1" as="geometry">
            <mxPoint as="offset" />
          </mxGeometry>
        </mxCell>
        <mxCell id="0VZTM6ZU5YmMHWf4AoFY-32" value="节点之间相似度&amp;gt;0.4" style="rhombus;whiteSpace=wrap;html=1;" vertex="1" parent="1">
          <mxGeometry x="990" y="476" width="140" height="80" as="geometry" />
        </mxCell>
        <mxCell id="0VZTM6ZU5YmMHWf4AoFY-38" style="edgeStyle=orthogonalEdgeStyle;rounded=0;orthogonalLoop=1;jettySize=auto;html=1;exitX=1;exitY=0.5;exitDx=0;exitDy=0;" edge="1" parent="1" source="0VZTM6ZU5YmMHWf4AoFY-36">
          <mxGeometry relative="1" as="geometry">
            <mxPoint x="1240" y="725" as="targetPoint" />
          </mxGeometry>
        </mxCell>
        <mxCell id="0VZTM6ZU5YmMHWf4AoFY-39" value="是" style="edgeLabel;html=1;align=center;verticalAlign=middle;resizable=0;points=[];" vertex="1" connectable="0" parent="0VZTM6ZU5YmMHWf4AoFY-38">
          <mxGeometry x="0.2756" y="-3" relative="1" as="geometry">
            <mxPoint as="offset" />
          </mxGeometry>
        </mxCell>
        <mxCell id="0VZTM6ZU5YmMHWf4AoFY-36" value="模型预测结果&amp;gt;0.5" style="rhombus;whiteSpace=wrap;html=1;" vertex="1" parent="1">
          <mxGeometry x="990" y="685" width="140" height="80" as="geometry" />
        </mxCell>
        <mxCell id="0VZTM6ZU5YmMHWf4AoFY-43" style="edgeStyle=orthogonalEdgeStyle;rounded=0;orthogonalLoop=1;jettySize=auto;html=1;exitX=0.5;exitY=1;exitDx=0;exitDy=0;entryX=0.5;entryY=0;entryDx=0;entryDy=0;" edge="1" parent="1" source="0VZTM6ZU5YmMHWf4AoFY-41" target="0VZTM6ZU5YmMHWf4AoFY-42">
          <mxGeometry relative="1" as="geometry" />
        </mxCell>
        <mxCell id="0VZTM6ZU5YmMHWf4AoFY-41" value="节点间存在关联&amp;nbsp;" style="rounded=0;whiteSpace=wrap;html=1;" vertex="1" parent="1">
          <mxGeometry x="1241" y="476" width="120" height="284" as="geometry" />
        </mxCell>
        <mxCell id="0VZTM6ZU5YmMHWf4AoFY-45" style="edgeStyle=orthogonalEdgeStyle;rounded=0;orthogonalLoop=1;jettySize=auto;html=1;exitX=0.5;exitY=1;exitDx=0;exitDy=0;entryX=0.5;entryY=0;entryDx=0;entryDy=0;" edge="1" parent="1" source="0VZTM6ZU5YmMHWf4AoFY-42" target="0VZTM6ZU5YmMHWf4AoFY-44">
          <mxGeometry relative="1" as="geometry" />
        </mxCell>
        <mxCell id="0VZTM6ZU5YmMHWf4AoFY-42" value="infomap" style="rounded=0;whiteSpace=wrap;html=1;" vertex="1" parent="1">
          <mxGeometry x="1241" y="810" width="120" height="50" as="geometry" />
        </mxCell>
        <mxCell id="0VZTM6ZU5YmMHWf4AoFY-44" value="聚类结果" style="rounded=0;whiteSpace=wrap;html=1;" vertex="1" parent="1">
          <mxGeometry x="1241" y="920" width="120" height="50" as="geometry" />
        </mxCell>
      </root>
    </mxGraphModel>
  </diagram>
</mxfile>
